<?xml version="1.0" encoding="UTF-8"?>
<svg version="1.1" xmlns="http://www.w3.org/2000/svg" width="800" height="222">
<path d="M0 0 C264 0 528 0 800 0 C800 73.26 800 146.52 800 222 C536 222 272 222 0 222 C0 148.74 0 75.48 0 0 Z " fill="#FDFDFD" transform="translate(0,0)"/>
<path d="M0 0 C4.43326024 0.49258447 6.86216771 1.81631902 10.62109375 4.07421875 C16.60679534 7.59700097 23.2201744 9.99210098 29.67578125 12.5078125 C31.82236161 13.39017196 33.87679023 14.37177824 35.9375 15.4375 C35.9375 16.0975 35.9375 16.7575 35.9375 17.4375 C36.47375 17.57285156 37.01 17.70820312 37.5625 17.84765625 C43.41392367 19.45487295 48.94001998 21.59452607 54.5 24 C55.21478516 24.30494385 55.92957031 24.6098877 56.66601562 24.92407227 C61.81505113 27.19260225 61.81505113 27.19260225 62.9375 29.4375 C64.57839653 30.10850947 66.25220281 30.69993772 67.9375 31.25 C71.60512759 32.5195634 74.87162907 33.86269665 78.1875 35.875 C84.31914424 39.4844871 91.17733886 41.34443298 97.9375 43.4375 C98.4325 45.9125 98.4325 45.9125 98.9375 48.4375 C90.39140128 52.25272264 84.46096212 51.12910499 75.8203125 48.25390625 C73.9375 47.4375 73.9375 47.4375 71.9375 45.4375 C68.7022406 43.96053375 65.42521587 42.63326373 62.125 41.30859375 C55.79868865 38.73449513 49.81307539 35.92426822 43.9375 32.4375 C43.9375 31.7775 43.9375 31.1175 43.9375 30.4375 C43.33421875 30.40011719 42.7309375 30.36273438 42.109375 30.32421875 C37.40218909 29.93701475 34.58350774 29.59737337 30.9375 26.4375 C29.25595996 25.70765771 27.57305296 24.98066791 25.88085938 24.27587891 C22.13807657 22.66121607 18.54228953 20.7402734 14.92382812 18.8671875 C11.88552356 17.3196866 9.27506971 16.27189243 5.9375 15.4375 C5.9375 49.4275 5.9375 83.4175 5.9375 118.4375 C7.9175 117.4475 9.8975 116.4575 11.9375 115.4375 C13.62572833 114.70487261 15.31439279 113.973015 17.01171875 113.26171875 C18.41893761 112.6594405 19.81618012 112.03370036 21.20703125 111.39453125 C25.09448717 109.60875133 28.6493624 107.99080808 32.9375 107.4375 C32.9375 106.7775 32.9375 106.1175 32.9375 105.4375 C35.3941947 104.43330363 37.85268353 103.43399499 40.3125 102.4375 C41.01117188 102.15132813 41.70984375 101.86515625 42.4296875 101.5703125 C47.7109375 99.4375 47.7109375 99.4375 49.9375 99.4375 C49.9375 98.7775 49.9375 98.1175 49.9375 97.4375 C50.87851563 97.11136719 51.81953125 96.78523438 52.7890625 96.44921875 C54.03429687 96.01222656 55.27953125 95.57523437 56.5625 95.125 C58.40714844 94.48111328 58.40714844 94.48111328 60.2890625 93.82421875 C63.92393455 92.52311591 63.92393455 92.52311591 67.1484375 90.76953125 C69.9375 89.4375 69.9375 89.4375 73.9375 89.4375 C73.9375 88.7775 73.9375 88.1175 73.9375 87.4375 C74.43636719 87.22996094 74.93523437 87.02242188 75.44921875 86.80859375 C80.23893401 84.75340175 84.80902548 82.45311392 89.375 79.9375 C93.99922968 77.40685388 98.56315279 75.23607329 103.5234375 73.45703125 C106.18554847 72.33274166 108.59824502 70.89811632 111.09033203 69.44311523 C114.01029465 67.85346072 117.07998323 66.73277759 120.1875 65.5625 C126.75753987 63.02665221 132.82442272 59.94260916 138.9375 56.4375 C142.85222492 54.36499857 146.73071575 52.7171314 150.91015625 51.28125 C153.06287856 50.44818537 153.06287856 50.44818537 155.3515625 48.9453125 C157.99152437 47.40599939 160.31619558 46.63413122 163.25 45.8125 C169.48584492 43.84979293 174.80456719 40.86589188 180.3293457 37.43505859 C184.33821159 35.02359713 187.11225319 33.74221948 191.9375 34.4375 C192.9275 35.0975 193.9175 35.7575 194.9375 36.4375 C195.23946494 39.47625961 195.34672151 42.31186257 195.32568359 45.35351562 C195.33356903 46.73901863 195.33356903 46.73901863 195.34161377 48.1525116 C195.35485555 51.21642798 195.34606088 54.27982801 195.3359375 57.34375 C195.33795703 59.46602478 195.34086746 61.58829889 195.34463501 63.71057129 C195.34906403 68.16274611 195.34260867 72.61474063 195.32861328 77.06689453 C195.31152117 82.78390098 195.32135925 88.50048496 195.33933067 94.21747589 C195.35015287 98.60112715 195.34672936 102.98467767 195.3389473 107.36833191 C195.33694096 109.47674102 195.33941968 111.58515918 195.34638596 113.69355774 C195.3539747 116.63644768 195.34243243 119.57864615 195.32568359 122.52148438 C195.33175629 123.39947189 195.33782898 124.27745941 195.34408569 125.18205261 C195.31845093 127.60388184 195.31845093 127.60388184 194.9375 131.4375 C191.3686332 133.81674453 190.15046873 133.83588948 185.9375 133.4375 C183.22978777 132.62028866 180.65876817 131.5544991 178.0625 130.4375 C177.37414062 130.15132812 176.68578125 129.86515625 175.9765625 129.5703125 C174.29291922 128.86879447 172.6146332 128.15444244 170.9375 127.4375 C170.9375 126.7775 170.9375 126.1175 170.9375 125.4375 C170.35742188 125.26734375 169.77734375 125.0971875 169.1796875 124.921875 C165.49493236 123.77874964 162.39522439 122.74958481 159.1875 120.5625 C155.20710573 117.95993452 151.13119347 116.52035481 146.68359375 114.875 C139.98281227 112.35745943 133.47384401 109.34906787 126.9375 106.4375 C127.2421875 104.546875 127.2421875 104.546875 127.9375 102.4375 C132.81365175 99.70685502 136.27117445 98.9653062 141.9375 99.4375 C144.70684104 100.43466023 147.23318545 101.7776941 149.8125 103.1875 C151.23109183 103.92968469 152.65035758 104.67058277 154.0703125 105.41015625 C155.07819824 105.94213623 155.07819824 105.94213623 156.10644531 106.48486328 C160.60576416 108.8257089 165.27918573 110.75793307 169.96875 112.6796875 C171.56203125 113.33324219 171.56203125 113.33324219 173.1875 114 C174.16203125 114.39316406 175.1365625 114.78632813 176.140625 115.19140625 C178.9375 116.4375 178.9375 116.4375 183.9375 119.4375 C183.9375 96.3375 183.9375 73.2375 183.9375 49.4375 C181.6275 50.4275 179.3175 51.4175 176.9375 52.4375 C175.29990813 53.02356013 173.65506914 53.59028535 172 54.125 C171.22785156 54.37636719 170.45570313 54.62773438 169.66015625 54.88671875 C169.09167969 55.06847656 168.52320313 55.25023437 167.9375 55.4375 C167.9375 56.0975 167.9375 56.7575 167.9375 57.4375 C167.09832031 57.76621094 167.09832031 57.76621094 166.2421875 58.1015625 C156.64539141 61.89707993 147.06213785 65.76344414 137.8828125 70.4921875 C127.70609504 75.4375 127.70609504 75.4375 123.9375 75.4375 C123.9375 76.0975 123.9375 76.7575 123.9375 77.4375 C120.65625 78.84375 120.65625 78.84375 117.375 80.25 C116.76591797 80.51103516 116.15683594 80.77207031 115.52929688 81.04101562 C114.29210924 81.5712389 113.05430814 82.10003289 111.81591797 82.62744141 C110.54441054 83.17577279 109.27786057 83.73572072 108.01611328 84.30615234 C105.13605348 85.59501889 103.13193959 86.4375 99.9375 86.4375 C99.9375 87.0975 99.9375 87.7575 99.9375 88.4375 C98.12378906 89.18193359 98.12378906 89.18193359 96.2734375 89.94140625 C87.34869179 93.63465691 78.6276914 97.4811953 70.0390625 101.90625 C66.41415843 103.69587518 62.73147301 105.15964743 58.92578125 106.515625 C56.87359961 107.32712514 56.87359961 107.32712514 55.44140625 108.9453125 C53.59441656 110.77791006 52.0352836 111.29450236 49.5625 112.0625 C48.77230469 112.30871094 47.98210937 112.55492187 47.16796875 112.80859375 C44.7746601 113.48341458 42.39309016 114.04143707 39.9375 114.4375 C39.9375 115.4275 39.9375 116.4175 39.9375 117.4375 C39.09324463 117.74602905 39.09324463 117.74602905 38.23193359 118.06079102 C27.82562402 121.88548621 17.67161041 125.73916107 7.9453125 131.08984375 C4.5068936 132.63043404 1.70367211 133.29949606 -2.0625 133.4375 C-3.74565411 132.27048588 -3.74565411 132.27048588 -5.0625 130.4375 C-5.43723011 128.0749197 -5.43723011 128.0749197 -5.4367218 125.2308197 C-5.44373611 124.15257431 -5.45075043 123.07432892 -5.45797729 121.96340942 C-5.45033356 120.78044281 -5.44268982 119.5974762 -5.43481445 118.37866211 C-5.43846512 117.13297958 -5.44211578 115.88729706 -5.44587708 114.60386658 C-5.45260114 111.18646482 -5.44585932 107.76960609 -5.43254495 104.35225749 C-5.42123785 100.77907306 -5.42533731 97.20590287 -5.42729187 93.63270569 C-5.42817497 87.63293778 -5.41709027 81.63328283 -5.39868164 75.63354492 C-5.37750409 68.69149257 -5.37400606 61.7496056 -5.3802436 54.80752748 C-5.38593261 48.13490798 -5.38029771 41.46234688 -5.36907005 34.78973579 C-5.36441889 31.94726039 -5.36355243 29.10482064 -5.3656559 26.26234245 C-5.36788435 22.29714644 -5.35344986 18.33210866 -5.3371582 14.36694336 C-5.33963562 13.18195251 -5.34211304 11.99696167 -5.34466553 10.77606201 C-5.33758072 9.70063644 -5.33049591 8.62521088 -5.32319641 7.51719666 C-5.32114354 6.57902068 -5.31909067 5.64084471 -5.31697559 4.67423916 C-4.89616653 0.97549499 -3.54817501 0.50688214 0 0 Z " fill="#0E0E0E" transform="translate(72.0625,39.5625)"/>
<path d="M0 0 C1.81242052 -0.02687279 3.62495233 -0.04633715 5.4375 -0.0625 C6.44683594 -0.07410156 7.45617187 -0.08570312 8.49609375 -0.09765625 C11 0 11 0 12 1 C12.08651611 2.41570123 12.10704904 3.835595 12.09765625 5.25390625 C12.09443359 6.10791016 12.09121094 6.96191406 12.08789062 7.84179688 C12.07951172 8.73962891 12.07113281 9.63746094 12.0625 10.5625 C12.05798828 11.46419922 12.05347656 12.36589844 12.04882812 13.29492188 C12.03700244 15.52997589 12.01906638 17.76499602 12 20 C17.61 20 23.22 20 29 20 C29 13.4 29 6.8 29 0 C32.3 0 35.6 0 39 0 C40.64087745 1.64087745 40.12739755 3.51831062 40.12939453 5.77929688 C40.13254669 6.797052 40.13569885 7.81480713 40.13894653 8.86340332 C40.1369223 9.97066772 40.13489807 11.07793213 40.1328125 12.21875 C40.13376923 13.34696167 40.13472595 14.47517334 40.13571167 15.63757324 C40.13639368 18.02840226 40.13453797 20.41923311 40.13037109 22.81005859 C40.12502316 26.48409151 40.13031543 30.15800217 40.13671875 33.83203125 C40.13605797 36.14843777 40.13477682 38.46484422 40.1328125 40.78125 C40.13483673 41.8885144 40.13686096 42.99577881 40.13894653 44.13659668 C40.13421829 45.66322937 40.13421829 45.66322937 40.12939453 47.22070312 C40.12859894 48.12147583 40.12780334 49.02224854 40.12698364 49.95031738 C40 52 40 52 39 53 C36.03 53 33.06 53 30 53 C30 45.41 30 37.82 30 30 C23.73 30 17.46 30 11 30 C11.01160156 31.57652344 11.02320313 33.15304688 11.03515625 34.77734375 C11.04453243 36.83072799 11.05363282 38.8841135 11.0625 40.9375 C11.07087891 41.97841797 11.07925781 43.01933594 11.08789062 44.09179688 C11.09111328 45.08115234 11.09433594 46.07050781 11.09765625 47.08984375 C11.10289307 48.00628662 11.10812988 48.92272949 11.11352539 49.86694336 C11 52 11 52 10 53 C8.50261876 53.0979057 7.00057108 53.12974864 5.5 53.125 C4.6853125 53.12757813 3.870625 53.13015625 3.03125 53.1328125 C1 53 1 53 0 52 C-0.09340434 50.37325222 -0.11745171 48.74245949 -0.11352539 47.11303711 C-0.11344986 46.07203354 -0.11337433 45.03102997 -0.11329651 43.95848083 C-0.10813522 42.8262056 -0.10297394 41.69393036 -0.09765625 40.52734375 C-0.0962413 39.37456436 -0.09482635 38.22178497 -0.09336853 37.03407288 C-0.08775005 33.33518936 -0.07519442 29.63636536 -0.0625 25.9375 C-0.05748738 23.43684983 -0.05292406 20.93619871 -0.04882812 18.43554688 C-0.03777462 12.29034412 -0.02101852 6.14517631 0 0 Z " fill="#0D0D0D" transform="translate(333,107)"/>
<path d="M0 0 C3.63 0 7.26 0 11 0 C13.53634391 4.74541763 15.45734262 8.57342622 16 14 C16.66 14 17.32 14 18 14 C19.2319332 17.19426159 20.46176992 20.38928917 21.6875 23.5859375 C22.45140165 25.57299121 23.21989054 27.55831582 24 29.5390625 C25.15826425 32.51268321 26 34.7776491 26 38 C26.66 38 27.32 38 28 38 C32.59225513 48.37357631 32.59225513 48.37357631 32 54 C30.37509046 54.02698189 28.75005367 54.04638757 27.125 54.0625 C26.22007812 54.07410156 25.31515625 54.08570313 24.3828125 54.09765625 C22 54 22 54 20 53 C19.59270772 50.67843403 19.25561323 48.3431213 19 46 C18.01 45.67 17.02 45.34 16 45 C14.88237943 42.16273392 13.93914265 39.41119133 13.0625 36.5 C11.05148157 30.12528511 8.90550348 24.03450723 6 18 C3.94563597 21.08154604 2.79885323 23.91403132 1.5 27.375 C-1.07395424 34.20225666 -3.8207382 40.85204416 -6.87890625 47.4765625 C-8.06845311 50.04505728 -8.06845311 50.04505728 -9 53 C-11.52475462 54.26237731 -13.31200466 54.09856404 -16.125 54.0625 C-17.03507813 54.05347656 -17.94515625 54.04445312 -18.8828125 54.03515625 C-19.58148437 54.02355469 -20.28015625 54.01195312 -21 54 C-20.36269976 48.97240924 -18.887179 44.62390578 -17.0625 39.9375 C-16.66514648 38.89625977 -16.66514648 38.89625977 -16.25976562 37.83398438 C-14.87259373 34.20943844 -13.45223759 30.59902359 -12 27 C-11.34 27 -10.68 27 -10 27 C-9.7525 25.741875 -9.505 24.48375 -9.25 23.1875 C-8.02166198 17.59767191 -6.05312625 12.33214826 -4 7 C-3.34 7 -2.68 7 -2 7 C-1.855625 6.21625 -1.71125 5.4325 -1.5625 4.625 C-1 2 -1 2 0 0 Z " fill="#0F0F0F" transform="translate(677,106)"/>
<path d="M0 0 C3.63 0 7.26 0 11 0 C13.30073725 4.37140077 15.15803263 8.82974839 16.96484375 13.42578125 C17.92427972 15.81169937 18.94224013 18.15633598 20 20.5 C22.15200043 25.2736835 24.08718352 30.1263878 26 35 C28.61755517 33.69122242 28.6460297 32.71774356 29.5859375 29.9921875 C29.87726562 29.16976562 30.16859375 28.34734375 30.46875 27.5 C30.7678125 26.63375 31.066875 25.7675 31.375 24.875 C33.45912291 18.84395407 35.73317454 13.48311576 39 8 C39.62832566 6.5393773 40.2235589 5.06285715 40.75 3.5625 C41.36875 1.7990625 41.36875 1.7990625 42 0 C45.63 0 49.26 0 53 0 C52.50104522 7.15168515 49.68436185 13.41291281 47 20 C46.34 20 45.68 20 45 20 C44.7525 21.27875 44.505 22.5575 44.25 23.875 C42.22232316 32.86669797 37.71744824 47.28255176 31 54 C29.31391034 54.07205511 27.62499341 54.08386068 25.9375 54.0625 C25.01839844 54.05347656 24.09929688 54.04445312 23.15234375 54.03515625 C22.44207031 54.02355469 21.73179687 54.01195312 21 54 C20.68546875 53.154375 20.3709375 52.30875 20.046875 51.4375 C17.93733734 45.84595439 15.80615177 40.38893171 13.03515625 35.09375 C11.21765851 31.41760362 9.71297166 27.60854226 8.15625 23.81640625 C7.27114863 21.66046675 6.36000147 19.5152034 5.4375 17.375 C4.963125 16.26125 4.48875 15.1475 4 14 C3.64679688 13.17371094 3.29359375 12.34742187 2.9296875 11.49609375 C2.56101562 10.61050781 2.19234375 9.72492188 1.8125 8.8125 C1.46832031 7.99394531 1.12414062 7.17539063 0.76953125 6.33203125 C0 4 0 4 0 0 Z " fill="#0C0C0C" transform="translate(508,106)"/>
<path d="M0 0 C5.39346988 -0.02464849 10.78690725 -0.04283531 16.18041992 -0.05493164 C18.01668875 -0.05997231 19.85295354 -0.06680477 21.68920898 -0.07543945 C24.32276401 -0.08751672 26.95626616 -0.09323081 29.58984375 -0.09765625 C30.41588608 -0.10281754 31.24192841 -0.10797882 32.09300232 -0.11329651 C34.06236368 -0.11349205 36.03161614 -0.06204152 38 0 C39 1 39 1 39.125 4.4375 C39 8 39 8 38 10 C28.76 10 19.52 10 10 10 C10.03958469 16.86612807 10.03958469 16.86612807 10.09008789 23.73217773 C10.09258545 24.58239502 10.09508301 25.4326123 10.09765625 26.30859375 C10.10289307 27.18314209 10.10812988 28.05769043 10.11352539 28.95874023 C10 31 10 31 9 32 C7.50261876 32.0979057 6.00057108 32.12974864 4.5 32.125 C3.6853125 32.12757813 2.870625 32.13015625 2.03125 32.1328125 C0 32 0 32 -1 31 C-1.10005826 28.87819862 -1.13081087 26.75306461 -1.1328125 24.62890625 C-1.13410156 23.33275391 -1.13539063 22.03660156 -1.13671875 20.70117188 C-1.13462402 20.0223999 -1.1325293 19.34362793 -1.13037109 18.64428711 C-1.1250313 16.57463211 -1.13031193 14.505195 -1.13671875 12.43554688 C-1.13542969 11.13810547 -1.13414062 9.84066406 -1.1328125 8.50390625 C-1.13168457 7.30580322 -1.13055664 6.1077002 -1.12939453 4.87329102 C-1 2 -1 2 0 0 Z " fill="#131313" transform="translate(425,128)"/>
<path d="M0 0 C0.8146875 0.00257812 1.629375 0.00515625 2.46875 0.0078125 C3.2834375 0.00523438 4.098125 0.00265625 4.9375 0 C6.96875 0.1328125 6.96875 0.1328125 7.96875 1.1328125 C8.06736598 2.75408673 8.09673767 4.37963618 8.09814453 6.00390625 C8.10129669 7.04168213 8.10444885 8.07945801 8.10769653 9.14868164 C8.1056723 10.27781982 8.10364807 11.40695801 8.1015625 12.5703125 C8.10251923 13.72072021 8.10347595 14.87112793 8.10446167 16.05639648 C8.10514369 18.49430394 8.1032879 20.9322132 8.09912109 23.37011719 C8.09377317 27.11657768 8.09906539 30.86291827 8.10546875 34.609375 C8.10480797 36.97135443 8.10352682 39.33333379 8.1015625 41.6953125 C8.10358673 42.82445068 8.10561096 43.95358887 8.10769653 45.11694336 C8.10454437 46.15471924 8.10139221 47.19249512 8.09814453 48.26171875 C8.09695114 49.63952515 8.09695114 49.63952515 8.09573364 51.04516602 C7.96875 53.1328125 7.96875 53.1328125 6.96875 54.1328125 C5.47136876 54.2307182 3.96932108 54.26256114 2.46875 54.2578125 C1.6540625 54.26039063 0.839375 54.26296875 0 54.265625 C-2.03125 54.1328125 -2.03125 54.1328125 -3.03125 53.1328125 C-3.12986598 51.51153827 -3.15923767 49.88598882 -3.16064453 48.26171875 C-3.16379669 47.22394287 -3.16694885 46.18616699 -3.17019653 45.11694336 C-3.1681723 43.98780518 -3.16614807 42.85866699 -3.1640625 41.6953125 C-3.16549759 39.96970093 -3.16549759 39.96970093 -3.16696167 38.20922852 C-3.16764369 35.77132106 -3.1657879 33.3334118 -3.16162109 30.89550781 C-3.15627317 27.14904732 -3.16156539 23.40270673 -3.16796875 19.65625 C-3.16730797 17.29427057 -3.16602682 14.93229121 -3.1640625 12.5703125 C-3.16608673 11.44117432 -3.16811096 10.31203613 -3.17019653 9.14868164 C-3.16704437 8.11090576 -3.16389221 7.07312988 -3.16064453 6.00390625 C-3.15984894 5.08536865 -3.15905334 4.16683105 -3.15823364 3.22045898 C-2.98855261 0.43085557 -2.78819069 0.18230478 0 0 Z " fill="#121212" transform="translate(487.03125,105.8671875)"/>
<path d="M0 0 C3.63 0 7.26 0 11 0 C11.02464071 7.38728591 11.0428316 14.77454812 11.05493164 22.16186523 C11.05997363 24.67716895 11.06680703 27.19246972 11.07543945 29.70776367 C11.08751094 33.31429775 11.09322949 36.92079323 11.09765625 40.52734375 C11.10281754 41.65961899 11.10797882 42.79189423 11.11329651 43.95848083 C11.11337204 44.99948441 11.11344757 46.04048798 11.11352539 47.11303711 C11.115746 48.03459091 11.11796661 48.95614471 11.12025452 49.90562439 C11 52 11 52 10 53 C8.50261876 53.0979057 7.00057108 53.12974864 5.5 53.125 C4.6853125 53.12757813 3.870625 53.13015625 3.03125 53.1328125 C1 53 1 53 0 52 C-0.09340434 50.37325222 -0.11745171 48.74245949 -0.11352539 47.11303711 C-0.11344986 46.07203354 -0.11337433 45.03102997 -0.11329651 43.95848083 C-0.10813522 42.8262056 -0.10297394 41.69393036 -0.09765625 40.52734375 C-0.0962413 39.37456436 -0.09482635 38.22178497 -0.09336853 37.03407288 C-0.08775005 33.33518936 -0.07519442 29.63636536 -0.0625 25.9375 C-0.05748738 23.43684983 -0.05292406 20.93619871 -0.04882812 18.43554688 C-0.03777462 12.29034149 -0.0204976 6.14518085 0 0 Z " fill="#0D0D0D" transform="translate(393,107)"/>
<path d="M0 0 C1.64574566 -0.02688151 3.29161413 -0.04634123 4.9375 -0.0625 C5.85402344 -0.07410156 6.77054688 -0.08570312 7.71484375 -0.09765625 C10 0 10 0 11 1 C11.09854422 2.5906331 11.12798694 4.18561477 11.12939453 5.77929688 C11.13254669 6.797052 11.13569885 7.81480713 11.13894653 8.86340332 C11.1369223 9.97066772 11.13489807 11.07793213 11.1328125 12.21875 C11.13376923 13.34696167 11.13472595 14.47517334 11.13571167 15.63757324 C11.13639368 18.02840226 11.13453797 20.41923311 11.13037109 22.81005859 C11.12502316 26.48409151 11.13031543 30.15800217 11.13671875 33.83203125 C11.13605797 36.14843777 11.13477682 38.46484422 11.1328125 40.78125 C11.13483673 41.8885144 11.13686096 42.99577881 11.13894653 44.13659668 C11.13579437 45.15435181 11.13264221 46.17210693 11.12939453 47.22070312 C11.12859894 48.12147583 11.12780334 49.02224854 11.12698364 49.95031738 C11 52 11 52 10 53 C8.50261876 53.0979057 7.00057108 53.12974864 5.5 53.125 C4.6853125 53.12757813 3.870625 53.13015625 3.03125 53.1328125 C1 53 1 53 0 52 C-0.09340434 50.37325222 -0.11745171 48.74245949 -0.11352539 47.11303711 C-0.11344986 46.07203354 -0.11337433 45.03102997 -0.11329651 43.95848083 C-0.10813522 42.8262056 -0.10297394 41.69393036 -0.09765625 40.52734375 C-0.0962413 39.37456436 -0.09482635 38.22178497 -0.09336853 37.03407288 C-0.08775005 33.33518936 -0.07519442 29.63636536 -0.0625 25.9375 C-0.05748738 23.43684983 -0.05292406 20.93619871 -0.04882812 18.43554688 C-0.03777462 12.29034412 -0.02101852 6.14517631 0 0 Z " fill="#0B0B0B" transform="translate(722,107)"/>
<path d="M0 0 C0.84477905 0.00202423 1.68955811 0.00404846 2.55993652 0.00613403 C3.42179565 0.00517731 4.28365479 0.00422058 5.17163086 0.00323486 C6.99751864 0.00255304 8.82340884 0.00440749 10.64929199 0.00857544 C13.45419731 0.01392367 16.25894248 0.00863054 19.06384277 0.00222778 C20.83337438 0.00288856 22.60290588 0.00416973 24.37243652 0.00613403 C25.21721558 0.0041098 26.06199463 0.00208557 26.93237305 0 C32.85123621 0.02399622 32.85123621 0.02399622 33.96618652 1.13894653 C34.09899902 2.95144653 34.09899902 2.95144653 34.09118652 5.13894653 C34.09505371 6.22175903 34.09505371 6.22175903 34.09899902 7.32644653 C33.96618652 9.13894653 33.96618652 9.13894653 32.96618652 10.13894653 C30.00913332 10.22762952 27.07553596 10.25414949 24.11853027 10.23660278 C22.78889 10.23448036 22.78889 10.23448036 21.43238831 10.23231506 C18.58945398 10.22669869 15.74659721 10.21414345 12.90368652 10.20144653 C10.98116162 10.19643364 9.05863548 10.19187037 7.1361084 10.18777466 C2.41277103 10.17672394 -2.31050806 10.15944836 -7.03381348 10.13894653 C-7.06070564 8.65987761 -7.08015969 7.18067171 -7.09631348 5.70144653 C-7.10791504 4.8777356 -7.1195166 4.05402466 -7.13146973 3.20535278 C-6.92234435 -1.21974028 -3.67196942 0.01488688 0 0 Z " fill="#212121" transform="translate(581.0338134765625,105.86105346679688)"/>
<path d="M0 0 C0.79273315 0.00404846 1.58546631 0.00809692 2.40222168 0.01226807 C3.62274231 0.00939789 3.62274231 0.00939789 4.86791992 0.00646973 C6.58948068 0.0051078 8.31105171 0.00880479 10.03259277 0.01715088 C12.67296338 0.02785048 15.31265357 0.01725607 17.95300293 0.00445557 C19.62357735 0.00577716 21.29415135 0.00833955 22.96472168 0.01226807 C23.75745483 0.0082196 24.55018799 0.00417114 25.36694336 0 C30.95355141 0.04797279 30.95355141 0.04797279 33.18347168 2.27789307 C33.37097168 5.84039307 33.37097168 5.84039307 33.18347168 9.27789307 C31.34528281 11.11608193 28.77348439 10.40661859 26.32777405 10.4168396 C25.50800583 10.41481537 24.68823761 10.41279114 23.84362793 10.41070557 C23.00633652 10.41166229 22.1690451 10.41261902 21.30638123 10.41360474 C19.53176804 10.41428662 17.75715237 10.41243179 15.98254395 10.40826416 C13.26105148 10.40292266 10.53972456 10.40820542 7.8182373 10.41461182 C6.09753381 10.4139509 4.37683043 10.41266947 2.65612793 10.41070557 C1.83838394 10.4127298 1.02063995 10.41475403 0.17811584 10.4168396 C-5.58661817 10.39284814 -5.58661817 10.39284814 -7.81652832 9.27789307 C-7.94152832 5.90289307 -7.94152832 5.90289307 -7.81652832 2.27789307 C-5.24220332 -0.29643193 -3.50940186 0.0301356 0 0 Z " fill="#181818" transform="translate(581.8165283203125,126.72210693359375)"/>
<path d="M0 0 C0.79789444 0.00202423 1.59578888 0.00404846 2.41786194 0.00613403 C3.23295731 0.00517731 4.04805267 0.00422058 4.8878479 0.00323486 C6.61538266 0.002553 8.34291996 0.0044077 10.07044983 0.00857544 C12.71951547 0.01391679 15.36841103 0.00863422 18.01747131 0.00222778 C19.6926019 0.0028887 21.36773238 0.00417014 23.04286194 0.00613403 C23.83873215 0.0041098 24.63460236 0.00208557 25.45458984 0 C31.06685731 0.02399109 31.06685731 0.02399109 33.29676819 1.13894653 C33.39442444 7.29129028 33.39442444 7.29129028 33.29676819 9.13894653 C31.4540031 10.98171162 28.8671306 10.26769065 26.41542053 10.27789307 C25.59251526 10.27586884 24.76960999 10.2738446 23.92176819 10.27175903 C23.0821051 10.27271576 22.24244202 10.27367249 21.37733459 10.2746582 C19.59852524 10.27534001 17.81971341 10.2734857 16.04090881 10.26931763 C13.30843043 10.26396936 10.57611643 10.26926259 7.84364319 10.27566528 C6.11968449 10.2750045 4.39572589 10.27372334 2.67176819 10.27175903 C1.84886292 10.27378326 1.02595764 10.2758075 0.17811584 10.27789307 C-5.58828127 10.25389708 -5.58828127 10.25389708 -6.70323181 9.13894653 C-6.83604431 7.32644653 -6.83604431 7.32644653 -6.82823181 5.13894653 C-6.83080994 4.41707153 -6.83338806 3.69519653 -6.83604431 2.95144653 C-6.53787432 -1.11769687 -3.35268819 0.01439346 0 0 Z " fill="#151515" transform="translate(581.7032318115234,149.86105346679688)"/>
<path d="M0 0 C0.82290527 0.00202423 1.64581055 0.00404846 2.49365234 0.00613403 C3.33331543 0.00517731 4.17297852 0.00422058 5.03808594 0.00323486 C6.81689529 0.00255306 8.59570712 0.00440737 10.37451172 0.00857544 C13.10699011 0.01392371 15.83930411 0.00863048 18.57177734 0.00222778 C20.29573604 0.00288856 22.01969464 0.00416973 23.74365234 0.00613403 C24.56655762 0.0041098 25.38946289 0.00208557 26.23730469 0 C32.0037018 0.02399599 32.0037018 0.02399599 33.11865234 1.13894653 C33.11865234 3.77894653 33.11865234 6.41894653 33.11865234 9.13894653 C19.91865234 9.13894653 6.71865234 9.13894653 -6.88134766 9.13894653 C-6.88134766 0.02863569 -6.88134766 0.02863569 0 0 Z " fill="#161616" transform="translate(430.88134765625,105.86105346679688)"/>
<path d="M0 0 C2.97 0 5.94 0 9 0 C9.09765625 6.15234375 9.09765625 6.15234375 9 8 C8 9 8 9 6.15234375 9.09765625 C4.1015625 9.06510417 2.05078125 9.03255208 0 9 C0 6.03 0 3.06 0 0 Z " fill="#131313" transform="translate(635,151)"/>
<path d="M0 0 C1.32 0 2.64 0 4 0 C4 0.66 4 1.32 4 2 C4.61488281 2.09796875 5.22976562 2.1959375 5.86328125 2.296875 C12.54716981 3.53344768 12.54716981 3.53344768 15.0625 6.125 C15.371875 6.74375 15.68125 7.3625 16 8 C10.18738629 6.26017005 5.16830006 4.1889511 0 1 C0 0.67 0 0.34 0 0 Z " fill="#989898" transform="translate(144,72)"/>
<path d="M0 0 C0.66 0.33 1.32 0.66 2 1 C0.35 1.66 -1.3 2.32 -3 3 C-3 3.99 -3 4.98 -3 6 C-10.5 8.125 -10.5 8.125 -15 7 C-10.05 5.515 -10.05 5.515 -5 4 C-5 3.34 -5 2.68 -5 2 C-2.625 0.9375 -2.625 0.9375 0 0 Z " fill="#464646" transform="translate(127,135)"/>
<path d="M0 0 C3.63 0 7.26 0 11 0 C11 0.66 11 1.32 11 2 C10.07767578 2.09087891 10.07767578 2.09087891 9.13671875 2.18359375 C8.32847656 2.26738281 7.52023437 2.35117188 6.6875 2.4375 C5.88699219 2.51871094 5.08648438 2.59992188 4.26171875 2.68359375 C1.83912821 2.95265693 1.83912821 2.95265693 -1 4 C-0.67 2.68 -0.34 1.36 0 0 Z " fill="#4C4C4C" transform="translate(550,106)"/>
<path d="M0 0 C0.66 0.33 1.32 0.66 2 1 C1.195625 1.61875 0.39125 2.2375 -0.4375 2.875 C-3.03874519 4.74164041 -3.03874519 4.74164041 -4 7 C-6.475 6.01 -6.475 6.01 -9 5 C-6.06626269 3.04417512 -3.21783702 1.43775696 0 0 Z " fill="#C1C1C1" transform="translate(121,150)"/>
<path d="M0 0 C2 1 2 1 3.0703125 3.72265625 C3.41835938 4.82480469 3.76640625 5.92695313 4.125 7.0625 C4.47820313 8.16722656 4.83140625 9.27195313 5.1953125 10.41015625 C5.46085938 11.26480469 5.72640625 12.11945313 6 13 C5.34 13 4.68 13 4 13 C4 12.34 4 11.68 4 11 C3.34 11 2.68 11 2 11 C1.34 7.37 0.68 3.74 0 0 Z " fill="#AEAEAE" transform="translate(523,146)"/>
<path d="M0 0 C0.66 0.33 1.32 0.66 2 1 C1.67 1.99 1.34 2.98 1 4 C0.01 4.33 -0.98 4.66 -2 5 C-2.33 5.66 -2.66 6.32 -3 7 C-3.66 6.67 -4.32 6.34 -5 6 C-4.67 5.34 -4.34 4.68 -4 4 C-4.66 3.67 -5.32 3.34 -6 3 C-5.01 3 -4.02 3 -3 3 C-3 2.34 -3 1.68 -3 1 C-2.01 0.67 -1.02 0.34 0 0 Z " fill="#333333" transform="translate(108,144)"/>
<path d="M0 0 C0 0.66 0 1.32 0 2 C-4.95 3.485 -4.95 3.485 -10 5 C-10 4.01 -10 3.02 -10 2 C-8.7090864 1.66376204 -7.41723903 1.33110751 -6.125 1 C-5.40570313 0.814375 -4.68640625 0.62875 -3.9453125 0.4375 C-2 0 -2 0 0 0 Z " fill="#686868" transform="translate(112,155)"/>
<path d="M0 0 C4.23830976 2.82553984 3.97715348 5.12180888 5 10 C4.34 9.67 3.68 9.34 3 9 C2.375 6.4375 2.375 6.4375 2 4 C1.01 3.67 0.02 3.34 -1 3 C-0.67 2.01 -0.34 1.02 0 0 Z " fill="#A5A5A5" transform="translate(682,123)"/>
</svg>
